<svg width="22" height="22" viewBox="0 0 22 22" fill="none" xmlns="http://www.w3.org/2000/svg">
<path d="M9.83648 4.6509C10.2229 4.60616 10.6116 4.58382 11.0007 4.58399C15.276 4.58399 18.7007 7.24507 20.1673 11.0007C19.8122 11.9142 19.3325 12.7742 18.7419 13.5563M5.97732 5.9764C4.10732 7.11765 2.65898 8.8859 1.83398 11.0007C3.30065 14.7562 6.72532 17.4173 11.0007 17.4173C12.7718 17.4267 14.5107 16.9443 16.024 16.024M9.05732 9.05732C8.80194 9.3127 8.59935 9.61588 8.46114 9.94956C8.32293 10.2832 8.25179 10.6409 8.25179 11.002C8.25179 11.3632 8.32293 11.7208 8.46114 12.0545C8.59935 12.3882 8.80194 12.6914 9.05732 12.9467C9.3127 13.2021 9.61588 13.4047 9.94956 13.5429C10.2832 13.6811 10.6409 13.7523 11.002 13.7523C11.3632 13.7523 11.7208 13.6811 12.0545 13.5429C12.3882 13.4047 12.6914 13.2021 12.9467 12.9467" stroke="#B7B7B7" stroke-width="1.2" stroke-linecap="round" stroke-linejoin="round"/>
<path d="M3.66797 3.66699L18.3346 18.3337" stroke="#B7B7B7" stroke-width="1.2" stroke-linecap="round"/>
</svg>
